# xmcd
#
# Track frame offsets: 
#        150
#        15545
#        31162
#        56977
#        68170
#        77240
#        95938
#        109342
#        124640
#        141499
#        156598
#        173860
#        185825
#
# Disc length: 2675 seconds
#
# Revision: 0
# Processed by: cddbd v1.5.2PL0 Copyright (c) Steve Scherf et al.
# Submitted via: ExactAudioCopy v1.3
#
DISCID=c30a710d
DTITLE=Roger C. Wade and Balta Bordoy feat. Marion Wade - The Schoolhous
DTITLE=e Sessions
DYEAR=2019
DGENRE=Blues
TTITLE0=It Must Have Been The Devil
TTITLE1=Hate To See You Go
TTITLE2=My Daily Wish
TTITLE3=Stop Right Now
TTITLE4=Baby What's Wrong
TTITLE5=Treat Me Right
TTITLE6=Mean, Mean Man
TTITLE7=Take A Chance
TTITLE8=Jemima
TTITLE9=Little Baby
TTITLE10=Act Like You Love Me
TTITLE11=Pickin' Chicken Boogie
TTITLE12=Things Have Changed
EXTD=
EXTT0=
EXTT1=
EXTT2=
EXTT3=
EXTT4=
EXTT5=
EXTT6=
EXTT7=
EXTT8=
EXTT9=
EXTT10=
EXTT11=
EXTT12=
PLAYORDER=
